REM DIRINDEX 1\4,1\2\5,1\2\6,1\3\7,1\3\8
REM DIRNAME folder01,folder02,folder03,folder04,folder05,folder06,folder07,folder08
TITLE ""
FILE "032_Day16_Check3_Sentences.mp3" MP3
  TRACK 01 AUDIO
    TITLE "0:"
    INDEX 01 00:00:00
  TRACK 02 AUDIO
    TITLE "4:cjc124_1026"
    INDEX 01 00:00:25
  TRACK 03 AUDIO
    TITLE "0:"
    INDEX 01 00:01:52
  TRACK 04 AUDIO
    TITLE "7:cjc124_1027"
    INDEX 01 00:02:34
  TRACK 05 AUDIO
    TITLE "0:"
    INDEX 01 00:05:14
  TRACK 06 AUDIO
    TITLE "8:cjc124_1028"
    INDEX 01 00:05:28
  TRACK 07 AUDIO
    TITLE "0:"
    INDEX 01 00:08:36
  TRACK 08 AUDIO
    TITLE "7:cjc124_1029"
    INDEX 01 00:08:73
  TRACK 09 AUDIO
    TITLE "0:"
    INDEX 01 00:10:74
  TRACK 10 AUDIO
    TITLE "8:cjc124_1030"
    INDEX 01 00:11:13
  TRACK 11 AUDIO
    TITLE "0:"
    INDEX 01 00:13:24
  TRACK 12 AUDIO
    TITLE "7:cjc124_1031"
    INDEX 01 00:13:61
  TRACK 13 AUDIO
    TITLE "0:"
    INDEX 01 00:16:24
  TRACK 14 AUDIO
    TITLE "8:cjc124_1032"
    INDEX 01 00:16:40
  TRACK 15 AUDIO
    TITLE "0:"
    INDEX 01 00:18:70
  TRACK 16 AUDIO
    TITLE "7:cjc124_1033"
    INDEX 01 00:19:30
  TRACK 17 AUDIO
    TITLE "0:"
    INDEX 01 00:22:09
  TRACK 18 AUDIO
    TITLE "8:cjc124_1034"
    INDEX 01 00:22:32
  TRACK 19 AUDIO
    TITLE "0:"
    INDEX 01 00:24:63
  TRACK 20 AUDIO
    TITLE "7:cjc124_1035"
    INDEX 01 00:25:27
  TRACK 21 AUDIO
    TITLE "0:"
    INDEX 01 00:27:63
  TRACK 22 AUDIO
    TITLE "8:cjc124_1036"
    INDEX 01 00:28:02
  TRACK 23 AUDIO
    TITLE "0:"
    INDEX 01 00:29:72
  TRACK 24 AUDIO
    TITLE "7:cjc124_1037"
    INDEX 01 00:30:36
  TRACK 25 AUDIO
    TITLE "0:"
    INDEX 01 00:32:62
  TRACK 26 AUDIO
    TITLE "8:cjc124_1038"
    INDEX 01 00:33:15
  TRACK 27 AUDIO
    TITLE "0:"
    INDEX 01 00:35:74
  TRACK 28 AUDIO
    TITLE "7:cjc124_1039"
    INDEX 01 00:36:33
  TRACK 29 AUDIO
    TITLE "0:"
    INDEX 01 00:39:49
  TRACK 30 AUDIO
    TITLE "8:cjc124_1040"
    INDEX 01 00:39:74
  TRACK 31 AUDIO
    TITLE "0:"
    INDEX 01 00:43:50
  TRACK 32 AUDIO
    TITLE "7:cjc124_1041"
    INDEX 01 00:44:12
  TRACK 33 AUDIO
    TITLE "0:"
    INDEX 01 00:47:01
  TRACK 34 AUDIO
    TITLE "8:cjc124_1042"
    INDEX 01 00:47:15
  TRACK 35 AUDIO
    TITLE "0:"
    INDEX 01 00:49:16
  TRACK 36 AUDIO
    TITLE "7:cjc124_1043"
    INDEX 01 00:49:53
  TRACK 37 AUDIO
    TITLE "0:"
    INDEX 01 00:52:10
  TRACK 38 AUDIO
    TITLE "8:cjc124_1044"
    INDEX 01 00:52:26
  TRACK 39 AUDIO
    TITLE "0:"
    INDEX 01 00:54:15
  TRACK 40 AUDIO
    TITLE "7:cjc124_1045"
    INDEX 01 00:54:54
  TRACK 41 AUDIO
    TITLE "0:"
    INDEX 01 00:58:34
  TRACK 42 AUDIO
    TITLE "8:cjc124_1046"
    INDEX 01 00:58:50
  TRACK 43 AUDIO
    TITLE "0:"
    INDEX 01 01:01:33
  TRACK 44 AUDIO
    TITLE "7:cjc124_1047"
    INDEX 01 01:01:66
  TRACK 45 AUDIO
    TITLE "0:"
    INDEX 01 01:04:48
  TRACK 46 AUDIO
    TITLE "8:cjc124_1048"
    INDEX 01 01:05:11
  TRACK 47 AUDIO
    TITLE "0:"
    INDEX 01 01:07:55
  TRACK 48 AUDIO
    TITLE "7:cjc124_1049"
    INDEX 01 01:08:19
  TRACK 49 AUDIO
    TITLE "0:"
    INDEX 01 01:11:31
  TRACK 50 AUDIO
    TITLE "8:cjc124_1050"
    INDEX 01 01:11:51
  TRACK 51 AUDIO
    TITLE "0:"
    INDEX 01 01:15:27
  TRACK 52 AUDIO
    TITLE "7:cjc124_1051"
    INDEX 01 01:15:62
  TRACK 53 AUDIO
    TITLE "0:"
    INDEX 01 01:18:31
  TRACK 54 AUDIO
    TITLE "8:cjc124_1052"
    INDEX 01 01:18:53
  TRACK 55 AUDIO
    TITLE "0:"
    INDEX 01 01:21:61
  TRACK 56 AUDIO
    TITLE "7:cjc124_1053"
    INDEX 01 01:22:21
  TRACK 57 AUDIO
    TITLE "0:"
    INDEX 01 01:24:24
  TRACK 58 AUDIO
    TITLE "8:cjc124_1054"
    INDEX 01 01:24:51
  TRACK 59 AUDIO
    TITLE "0:"
    INDEX 01 01:26:52
  TRACK 60 AUDIO
    TITLE "7:cjc124_1055"
    INDEX 01 01:27:14
  TRACK 61 AUDIO
    TITLE "0:"
    INDEX 01 01:30:34
  TRACK 62 AUDIO
    TITLE "8:cjc124_1056"
    INDEX 01 01:30:52
  TRACK 63 AUDIO
    TITLE "0:"
    INDEX 01 01:33:40
  TRACK 64 AUDIO
    TITLE "7:cjc124_1057"
    INDEX 01 01:34:03
  TRACK 65 AUDIO
    TITLE "0:"
    INDEX 01 01:36:27
  TRACK 66 AUDIO
    TITLE "8:cjc124_1058"
    INDEX 01 01:36:48
  TRACK 67 AUDIO
    TITLE "0:"
    INDEX 01 01:39:21
